<mxfile host="app.diagrams.net" agent="Mozilla/5.0 (Windows NT 10.0; Win64; x64) AppleWebKit/537.36 (KHTML, like Gecko) Chrome/130.0.0.0 Safari/537.36 Edg/130.0.0.0" version="24.8.6">
  <diagram name="Page-1" id="zGTk6wpetBWKAOHbwKwr">
    <mxGraphModel dx="1678" dy="931" grid="0" gridSize="10" guides="1" tooltips="1" connect="1" arrows="1" fold="1" page="1" pageScale="1" pageWidth="850" pageHeight="1100" math="0" shadow="0">
      <root>
        <mxCell id="0" />
        <mxCell id="1" parent="0" />
        <mxCell id="_PxVnZW1iezcTUb5o3Xm-1" value="User" style="swimlane;fontStyle=0;childLayout=stackLayout;horizontal=1;startSize=26;fillColor=none;horizontalStack=0;resizeParent=1;resizeParentMax=0;resizeLast=0;collapsible=1;marginBottom=0;whiteSpace=wrap;html=1;" vertex="1" parent="1">
          <mxGeometry x="674" y="107" width="140" height="140" as="geometry" />
        </mxCell>
        <mxCell id="_PxVnZW1iezcTUb5o3Xm-2" value="UserID&amp;nbsp; &amp;nbsp;&amp;lt;&amp;lt;PK&amp;gt;&amp;gt;&lt;div&gt;Type&lt;/div&gt;&lt;div&gt;Last name&lt;/div&gt;&lt;div&gt;First name&lt;/div&gt;&lt;div&gt;Email&lt;/div&gt;&lt;div&gt;Age&lt;/div&gt;&lt;div&gt;Specialization&lt;/div&gt;" style="text;strokeColor=none;fillColor=none;align=left;verticalAlign=top;spacingLeft=4;spacingRight=4;overflow=hidden;rotatable=0;points=[[0,0.5],[1,0.5]];portConstraint=eastwest;whiteSpace=wrap;html=1;" vertex="1" parent="_PxVnZW1iezcTUb5o3Xm-1">
          <mxGeometry y="26" width="140" height="112" as="geometry" />
        </mxCell>
        <mxCell id="_PxVnZW1iezcTUb5o3Xm-4" value="+ field: type" style="text;strokeColor=none;fillColor=none;align=left;verticalAlign=top;spacingLeft=4;spacingRight=4;overflow=hidden;rotatable=0;points=[[0,0.5],[1,0.5]];portConstraint=eastwest;whiteSpace=wrap;html=1;" vertex="1" parent="_PxVnZW1iezcTUb5o3Xm-1">
          <mxGeometry y="138" width="140" height="2" as="geometry" />
        </mxCell>
        <mxCell id="_PxVnZW1iezcTUb5o3Xm-5" value="Our project uses single table inheritance mapping and as such the relational data tables will be presented in that fashion aswell." style="text;html=1;align=center;verticalAlign=middle;whiteSpace=wrap;rounded=0;" vertex="1" parent="1">
          <mxGeometry x="210" y="17" width="431" height="71" as="geometry" />
        </mxCell>
        <mxCell id="_PxVnZW1iezcTUb5o3Xm-6" value="&amp;lt;&amp;lt;interface&amp;gt;&amp;gt;&lt;div&gt;&lt;b&gt;::User&lt;/b&gt;&lt;/div&gt;" style="swimlane;fontStyle=0;childLayout=stackLayout;horizontal=1;startSize=26;fillColor=none;horizontalStack=0;resizeParent=1;resizeParentMax=0;resizeLast=0;collapsible=1;marginBottom=0;whiteSpace=wrap;html=1;" vertex="1" parent="1">
          <mxGeometry x="204" y="99" width="140" height="102" as="geometry" />
        </mxCell>
        <mxCell id="_PxVnZW1iezcTUb5o3Xm-8" value="string lastName&lt;div&gt;string firstName&lt;/div&gt;&lt;div&gt;string Email&lt;/div&gt;&lt;div&gt;int Age&lt;/div&gt;&lt;div&gt;String specialization&lt;/div&gt;" style="text;strokeColor=none;fillColor=none;align=left;verticalAlign=top;spacingLeft=4;spacingRight=4;overflow=hidden;rotatable=0;points=[[0,0.5],[1,0.5]];portConstraint=eastwest;whiteSpace=wrap;html=1;" vertex="1" parent="_PxVnZW1iezcTUb5o3Xm-6">
          <mxGeometry y="26" width="140" height="76" as="geometry" />
        </mxCell>
        <mxCell id="_PxVnZW1iezcTUb5o3Xm-9" value="&lt;div&gt;&lt;b&gt;::Client&lt;/b&gt;&lt;/div&gt;" style="swimlane;fontStyle=0;childLayout=stackLayout;horizontal=1;startSize=26;fillColor=none;horizontalStack=0;resizeParent=1;resizeParentMax=0;resizeLast=0;collapsible=1;marginBottom=0;whiteSpace=wrap;html=1;" vertex="1" parent="1">
          <mxGeometry x="42" y="302" width="140" height="102" as="geometry" />
        </mxCell>
        <mxCell id="_PxVnZW1iezcTUb5o3Xm-11" value="&lt;b&gt;::Instructor&lt;/b&gt;" style="swimlane;fontStyle=0;childLayout=stackLayout;horizontal=1;startSize=26;fillColor=none;horizontalStack=0;resizeParent=1;resizeParentMax=0;resizeLast=0;collapsible=1;marginBottom=0;whiteSpace=wrap;html=1;" vertex="1" parent="1">
          <mxGeometry x="199" y="300" width="140" height="102" as="geometry" />
        </mxCell>
        <mxCell id="_PxVnZW1iezcTUb5o3Xm-12" value="string specialization" style="text;strokeColor=none;fillColor=none;align=left;verticalAlign=top;spacingLeft=4;spacingRight=4;overflow=hidden;rotatable=0;points=[[0,0.5],[1,0.5]];portConstraint=eastwest;whiteSpace=wrap;html=1;" vertex="1" parent="_PxVnZW1iezcTUb5o3Xm-11">
          <mxGeometry y="26" width="140" height="76" as="geometry" />
        </mxCell>
        <mxCell id="_PxVnZW1iezcTUb5o3Xm-13" value="&lt;b&gt;::Guardian&lt;/b&gt;" style="swimlane;fontStyle=0;childLayout=stackLayout;horizontal=1;startSize=26;fillColor=none;horizontalStack=0;resizeParent=1;resizeParentMax=0;resizeLast=0;collapsible=1;marginBottom=0;whiteSpace=wrap;html=1;" vertex="1" parent="1">
          <mxGeometry x="361" y="298" width="140" height="102" as="geometry" />
        </mxCell>
        <mxCell id="_PxVnZW1iezcTUb5o3Xm-15" value="&lt;b&gt;::Administrator&lt;/b&gt;" style="swimlane;fontStyle=0;childLayout=stackLayout;horizontal=1;startSize=26;fillColor=none;horizontalStack=0;resizeParent=1;resizeParentMax=0;resizeLast=0;collapsible=1;marginBottom=0;whiteSpace=wrap;html=1;" vertex="1" parent="1">
          <mxGeometry x="534" y="295" width="140" height="102" as="geometry" />
        </mxCell>
        <mxCell id="_PxVnZW1iezcTUb5o3Xm-18" value="" style="endArrow=block;endSize=16;endFill=0;html=1;rounded=0;exitX=0.5;exitY=0;exitDx=0;exitDy=0;" edge="1" parent="1" source="_PxVnZW1iezcTUb5o3Xm-11">
          <mxGeometry width="160" relative="1" as="geometry">
            <mxPoint x="100" y="257" as="sourcePoint" />
            <mxPoint x="267" y="204" as="targetPoint" />
          </mxGeometry>
        </mxCell>
        <mxCell id="_PxVnZW1iezcTUb5o3Xm-21" value="" style="endArrow=none;html=1;rounded=0;exitX=0.5;exitY=0;exitDx=0;exitDy=0;" edge="1" parent="1" source="_PxVnZW1iezcTUb5o3Xm-13">
          <mxGeometry width="50" height="50" relative="1" as="geometry">
            <mxPoint x="399" y="340" as="sourcePoint" />
            <mxPoint x="270" y="253" as="targetPoint" />
            <Array as="points">
              <mxPoint x="431" y="255" />
            </Array>
          </mxGeometry>
        </mxCell>
        <mxCell id="_PxVnZW1iezcTUb5o3Xm-22" value="" style="endArrow=none;html=1;rounded=0;exitX=0.5;exitY=0;exitDx=0;exitDy=0;" edge="1" parent="1">
          <mxGeometry width="50" height="50" relative="1" as="geometry">
            <mxPoint x="591" y="300" as="sourcePoint" />
            <mxPoint x="430" y="255" as="targetPoint" />
            <Array as="points">
              <mxPoint x="591" y="257" />
            </Array>
          </mxGeometry>
        </mxCell>
        <mxCell id="_PxVnZW1iezcTUb5o3Xm-23" value="" style="endArrow=none;html=1;rounded=0;entryX=0.5;entryY=0;entryDx=0;entryDy=0;" edge="1" parent="1" target="_PxVnZW1iezcTUb5o3Xm-9">
          <mxGeometry width="50" height="50" relative="1" as="geometry">
            <mxPoint x="265" y="249" as="sourcePoint" />
            <mxPoint x="46.5" y="184" as="targetPoint" />
            <Array as="points">
              <mxPoint x="112" y="249" />
            </Array>
          </mxGeometry>
        </mxCell>
        <mxCell id="_PxVnZW1iezcTUb5o3Xm-24" value="" style="shape=flexArrow;endArrow=classic;html=1;rounded=0;" edge="1" parent="1">
          <mxGeometry width="50" height="50" relative="1" as="geometry">
            <mxPoint x="533" y="181" as="sourcePoint" />
            <mxPoint x="613" y="181" as="targetPoint" />
          </mxGeometry>
        </mxCell>
        <mxCell id="_PxVnZW1iezcTUb5o3Xm-25" value="Relational Data Table" style="text;html=1;align=center;verticalAlign=middle;whiteSpace=wrap;rounded=0;" vertex="1" parent="1">
          <mxGeometry x="714" y="63" width="60" height="30" as="geometry" />
        </mxCell>
        <mxCell id="_PxVnZW1iezcTUb5o3Xm-26" value="For every other class there is no inheritance so I will just display the tables the classes can be found in the class diagrams" style="text;html=1;align=center;verticalAlign=middle;whiteSpace=wrap;rounded=0;" vertex="1" parent="1">
          <mxGeometry x="204" y="460" width="431" height="71" as="geometry" />
        </mxCell>
        <mxCell id="_PxVnZW1iezcTUb5o3Xm-27" value="TimeSlot" style="swimlane;fontStyle=0;childLayout=stackLayout;horizontal=1;startSize=26;fillColor=none;horizontalStack=0;resizeParent=1;resizeParentMax=0;resizeLast=0;collapsible=1;marginBottom=0;whiteSpace=wrap;html=1;" vertex="1" parent="1">
          <mxGeometry x="18" y="535" width="140" height="140" as="geometry" />
        </mxCell>
        <mxCell id="_PxVnZW1iezcTUb5o3Xm-28" value="TimeslotID &amp;lt;&amp;lt;PK&amp;gt;&amp;gt;&lt;div&gt;ScheduleID &amp;lt;&amp;lt;FK&amp;gt;?&lt;/div&gt;&lt;div&gt;Day&lt;/div&gt;&lt;div&gt;Start Time&lt;/div&gt;&lt;div&gt;EndTime&lt;/div&gt;" style="text;strokeColor=none;fillColor=none;align=left;verticalAlign=top;spacingLeft=4;spacingRight=4;overflow=hidden;rotatable=0;points=[[0,0.5],[1,0.5]];portConstraint=eastwest;whiteSpace=wrap;html=1;" vertex="1" parent="_PxVnZW1iezcTUb5o3Xm-27">
          <mxGeometry y="26" width="140" height="112" as="geometry" />
        </mxCell>
        <mxCell id="_PxVnZW1iezcTUb5o3Xm-29" value="+ field: type" style="text;strokeColor=none;fillColor=none;align=left;verticalAlign=top;spacingLeft=4;spacingRight=4;overflow=hidden;rotatable=0;points=[[0,0.5],[1,0.5]];portConstraint=eastwest;whiteSpace=wrap;html=1;" vertex="1" parent="_PxVnZW1iezcTUb5o3Xm-27">
          <mxGeometry y="138" width="140" height="2" as="geometry" />
        </mxCell>
        <mxCell id="_PxVnZW1iezcTUb5o3Xm-30" value="Schedule" style="swimlane;fontStyle=0;childLayout=stackLayout;horizontal=1;startSize=26;fillColor=none;horizontalStack=0;resizeParent=1;resizeParentMax=0;resizeLast=0;collapsible=1;marginBottom=0;whiteSpace=wrap;html=1;" vertex="1" parent="1">
          <mxGeometry x="193" y="535" width="140" height="140" as="geometry" />
        </mxCell>
        <mxCell id="_PxVnZW1iezcTUb5o3Xm-31" value="ScheduleID&amp;lt;&amp;lt;PK&amp;gt;&amp;gt;&lt;div&gt;LocationID&amp;lt;&amp;lt;FK&amp;gt;&amp;gt;&lt;span style=&quot;color: rgba(0, 0, 0, 0); font-family: monospace; font-size: 0px; text-wrap-mode: nowrap; background-color: initial;&quot;&gt;%3CmxGraphModel%3E%3Croot%3E%3CmxCell%20id%3D%220%22%2F%3E%3CmxCell%20id%3D%221%22%20parent%3D%220%22%2F%3E%3CmxCell%20id%3D%222%22%20value%3D%22TimeSlot%22%20style%3D%22swimlane%3BfontStyle%3D0%3BchildLayout%3DstackLayout%3Bhorizontal%3D1%3BstartSize%3D26%3BfillColor%3Dnone%3BhorizontalStack%3D0%3BresizeParent%3D1%3BresizeParentMax%3D0%3BresizeLast%3D0%3Bcollapsible%3D1%3BmarginBottom%3D0%3BwhiteSpace%3Dwrap%3Bhtml%3D1%3B%22%20vertex%3D%221%22%20parent%3D%221%22%3E%3CmxGeometry%20x%3D%2218%22%20y%3D%22535%22%20width%3D%22140%22%20height%3D%22140%22%20as%3D%22geometry%22%2F%3E%3C%2FmxCell%3E%3CmxCell%20id%3D%223%22%20value%3D%22TimeslotID%20%26amp%3Blt%3B%26amp%3Blt%3BPK%26amp%3Bgt%3B%26amp%3Bgt%3B%26lt%3Bdiv%26gt%3BScheduleID%20%26amp%3Blt%3B%26amp%3Blt%3BFK%26amp%3Bgt%3B%3F%26lt%3B%2Fdiv%26gt%3B%26lt%3Bdiv%26gt%3BDay%26lt%3B%2Fdiv%26gt%3B%26lt%3Bdiv%26gt%3BStart%20Time%26lt%3B%2Fdiv%26gt%3B%26lt%3Bdiv%26gt%3BEndTime%26lt%3B%2Fdiv%26gt%3B%22%20style%3D%22text%3BstrokeColor%3Dnone%3BfillColor%3Dnone%3Balign%3Dleft%3BverticalAlign%3Dtop%3BspacingLeft%3D4%3BspacingRight%3D4%3Boverflow%3Dhidden%3Brotatable%3D0%3Bpoints%3D%5B%5B0%2C0.5%5D%2C%5B1%2C0.5%5D%5D%3BportConstraint%3Deastwest%3BwhiteSpace%3Dwrap%3Bhtml%3D1%3B%22%20vertex%3D%221%22%20parent%3D%222%22%3E%3CmxGeometry%20y%3D%2226%22%20width%3D%22140%22%20height%3D%22112%22%20as%3D%22geometry%22%2F%3E%3C%2FmxCell%3E%3CmxCell%20id%3D%224%22%20value%3D%22%2B%20field%3A%20type%22%20style%3D%22text%3BstrokeColor%3Dnone%3BfillColor%3Dnone%3Balign%3Dleft%3BverticalAlign%3Dtop%3BspacingLeft%3D4%3BspacingRight%3D4%3Boverflow%3Dhidden%3Brotatable%3D0%3Bpoints%3D%5B%5B0%2C0.5%5D%2C%5B1%2C0.5%5D%5D%3BportConstraint%3Deastwest%3BwhiteSpace%3Dwrap%3Bhtml%3D1%3B%22%20vertex%3D%221%22%20parent%3D%222%22%3E%3CmxGeometry%20y%3D%22138%22%20width%3D%22140%22%20height%3D%222%22%20as%3D%22geometry%22%2F%3E%3C%2FmxCell%3E%3C%2Froot%3E%3C%2FmxGraphModel%3E&lt;/span&gt;&lt;/div&gt;" style="text;strokeColor=none;fillColor=none;align=left;verticalAlign=top;spacingLeft=4;spacingRight=4;overflow=hidden;rotatable=0;points=[[0,0.5],[1,0.5]];portConstraint=eastwest;whiteSpace=wrap;html=1;" vertex="1" parent="_PxVnZW1iezcTUb5o3Xm-30">
          <mxGeometry y="26" width="140" height="112" as="geometry" />
        </mxCell>
        <mxCell id="_PxVnZW1iezcTUb5o3Xm-32" value="+ field: type" style="text;strokeColor=none;fillColor=none;align=left;verticalAlign=top;spacingLeft=4;spacingRight=4;overflow=hidden;rotatable=0;points=[[0,0.5],[1,0.5]];portConstraint=eastwest;whiteSpace=wrap;html=1;" vertex="1" parent="_PxVnZW1iezcTUb5o3Xm-30">
          <mxGeometry y="138" width="140" height="2" as="geometry" />
        </mxCell>
        <mxCell id="_PxVnZW1iezcTUb5o3Xm-33" value="Location" style="swimlane;fontStyle=0;childLayout=stackLayout;horizontal=1;startSize=26;fillColor=none;horizontalStack=0;resizeParent=1;resizeParentMax=0;resizeLast=0;collapsible=1;marginBottom=0;whiteSpace=wrap;html=1;" vertex="1" parent="1">
          <mxGeometry x="366" y="535" width="140" height="140" as="geometry" />
        </mxCell>
        <mxCell id="_PxVnZW1iezcTUb5o3Xm-34" value="LocationID&amp;lt;&amp;lt;PK&amp;gt;&amp;gt;&lt;div&gt;LocationName&lt;/div&gt;&lt;div&gt;City&lt;span style=&quot;color: rgba(0, 0, 0, 0); font-family: monospace; font-size: 0px; text-wrap-mode: nowrap; background-color: initial;&quot;&gt;%3CmxGraphModel%3E%3Croot%3E%3CmxCell%20id%3D%220%22%2F%3E%3CmxCell%20id%3D%221%22%20parent%3D%220%22%2F%3E%3CmxCell%20id%3D%222%22%20value%3D%22TimeSlot%22%20style%3D%22swimlane%3BfontStyle%3D0%3BchildLayout%3DstackLayout%3Bhorizontal%3D1%3BstartSize%3D26%3BfillColor%3Dnone%3BhorizontalStack%3D0%3BresizeParent%3D1%3BresizeParentMax%3D0%3BresizeLast%3D0%3Bcollapsible%3D1%3BmarginBottom%3D0%3BwhiteSpace%3Dwrap%3Bhtml%3D1%3B%22%20vertex%3D%221%22%20parent%3D%221%22%3E%3CmxGeometry%20x%3D%2218%22%20y%3D%22535%22%20width%3D%22140%22%20height%3D%22140%22%20as%3D%22geometry%22%2F%3E%3C%2FmxCell%3E%3CmxCell%20id%3D%223%22%20value%3D%22TimeslotID%20%26amp%3Blt%3B%26amp%3Blt%3BPK%26amp%3Bgt%3B%26amp%3Bgt%3B%26lt%3Bdiv%26gt%3BScheduleID%20%26amp%3Blt%3B%26amp%3Blt%3BFK%26amp%3Bgt%3B%3F%26lt%3B%2Fdiv%26gt%3B%26lt%3Bdiv%26gt%3BDay%26lt%3B%2Fdiv%26gt%3B%26lt%3Bdiv%26gt%3BStart%20Time%26lt%3B%2Fdiv%26gt%3B%26lt%3Bdiv%26gt%3BEndTime%26lt%3B%2Fdiv%26gt%3B%22%20style%3D%22text%3BstrokeColor%3Dnone%3BfillColor%3Dnone%3Balign%3Dleft%3BverticalAlign%3Dtop%3BspacingLeft%3D4%3BspacingRight%3D4%3Boverflow%3Dhidden%3Brotatable%3D0%3Bpoints%3D%5B%5B0%2C0.5%5D%2C%5B1%2C0.5%5D%5D%3BportConstraint%3Deastwest%3BwhiteSpace%3Dwrap%3Bhtml%3D1%3B%22%20vertex%3D%221%22%20parent%3D%222%22%3E%3CmxGeometry%20y%3D%2226%22%20width%3D%22140%22%20height%3D%22112%22%20as%3D%22geometry%22%2F%3E%3C%2FmxCell%3E%3CmxCell%20id%3D%224%22%20value%3D%22%2B%20field%3A%20type%22%20style%3D%22text%3BstrokeColor%3Dnone%3BfillColor%3Dnone%3Balign%3Dleft%3BverticalAlign%3Dtop%3BspacingLeft%3D4%3BspacingRight%3D4%3Boverflow%3Dhidden%3Brotatable%3D0%3Bpoints%3D%5B%5B0%2C0.5%5D%2C%5B1%2C0.5%5D%5D%3BportConstraint%3Deastwest%3BwhiteSpace%3Dwrap%3Bhtml%3D1%3B%22%20vertex%3D%221%22%20parent%3D%222%22%3E%3CmxGeometry%20y%3D%22138%22%20width%3D%22140%22%20height%3D%222%22%20as%3D%22geometry%22%2F%3E%3C%2FmxCell%3E%3C%2Froot%3E%3C%2FmxGraphModel%3E&lt;/span&gt;&lt;/div&gt;" style="text;strokeColor=none;fillColor=none;align=left;verticalAlign=top;spacingLeft=4;spacingRight=4;overflow=hidden;rotatable=0;points=[[0,0.5],[1,0.5]];portConstraint=eastwest;whiteSpace=wrap;html=1;" vertex="1" parent="_PxVnZW1iezcTUb5o3Xm-33">
          <mxGeometry y="26" width="140" height="112" as="geometry" />
        </mxCell>
        <mxCell id="_PxVnZW1iezcTUb5o3Xm-35" value="+ field: type" style="text;strokeColor=none;fillColor=none;align=left;verticalAlign=top;spacingLeft=4;spacingRight=4;overflow=hidden;rotatable=0;points=[[0,0.5],[1,0.5]];portConstraint=eastwest;whiteSpace=wrap;html=1;" vertex="1" parent="_PxVnZW1iezcTUb5o3Xm-33">
          <mxGeometry y="138" width="140" height="2" as="geometry" />
        </mxCell>
        <mxCell id="_PxVnZW1iezcTUb5o3Xm-36" value="Lesson" style="swimlane;fontStyle=0;childLayout=stackLayout;horizontal=1;startSize=26;fillColor=none;horizontalStack=0;resizeParent=1;resizeParentMax=0;resizeLast=0;collapsible=1;marginBottom=0;whiteSpace=wrap;html=1;" vertex="1" parent="1">
          <mxGeometry x="531" y="535" width="140" height="140" as="geometry" />
        </mxCell>
        <mxCell id="_PxVnZW1iezcTUb5o3Xm-37" value="LessonID&amp;lt;&amp;lt;PK&amp;gt;&amp;gt;&lt;div&gt;LessonName&lt;/div&gt;&lt;div&gt;Duration&lt;/div&gt;&lt;div&gt;Public / is_group&lt;span style=&quot;color: rgba(0, 0, 0, 0); font-family: monospace; font-size: 0px; text-wrap-mode: nowrap; background-color: initial;&quot;&gt;%3CmxGraphModel%3E%3Croot%3E%3CmxCell%20id%3D%220%22%2F%3E%3CmxCell%20id%3D%221%22%20parent%3D%220%22%2F%3E%3CmxCell%20id%3D%222%22%20value%3D%22TimeSlot%22%20style%3D%22swimlane%3BfontStyle%3D0%3BchildLayout%3DstackLayout%3Bhorizontal%3D1%3BstartSize%3D26%3BfillColor%3Dnone%3BhorizontalStack%3D0%3BresizeParent%3D1%3BresizeParentMax%3D0%3BresizeLast%3D0%3Bcollapsible%3D1%3BmarginBottom%3D0%3BwhiteSpace%3Dwrap%3Bhtml%3D1%3B%22%20vertex%3D%221%22%20parent%3D%221%22%3E%3CmxGeometry%20x%3D%2218%22%20y%3D%22535%22%20width%3D%22140%22%20height%3D%22140%22%20as%3D%22geometry%22%2F%3E%3C%2FmxCell%3E%3CmxCell%20id%3D%223%22%20value%3D%22TimeslotID%20%26amp%3Blt%3B%26amp%3Blt%3BPK%26amp%3Bgt%3B%26amp%3Bgt%3B%26lt%3Bdiv%26gt%3BScheduleID%20%26amp%3Blt%3B%26amp%3Blt%3BFK%26amp%3Bgt%3B%3F%26lt%3B%2Fdiv%26gt%3B%26lt%3Bdiv%26gt%3BDay%26lt%3B%2Fdiv%26gt%3B%26lt%3Bdiv%26gt%3BStart%20Time%26lt%3B%2Fdiv%26gt%3B%26lt%3Bdiv%26gt%3BEndTime%26lt%3B%2Fdiv%26gt%3B%22%20style%3D%22text%3BstrokeColor%3Dnone%3BfillColor%3Dnone%3Balign%3Dleft%3BverticalAlign%3Dtop%3BspacingLeft%3D4%3BspacingRight%3D4%3Boverflow%3Dhidden%3Brotatable%3D0%3Bpoints%3D%5B%5B0%2C0.5%5D%2C%5B1%2C0.5%5D%5D%3BportConstraint%3Deastwest%3BwhiteSpace%3Dwrap%3Bhtml%3D1%3B%22%20vertex%3D%221%22%20parent%3D%222%22%3E%3CmxGeometry%20y%3D%2226%22%20width%3D%22140%22%20height%3D%22112%22%20as%3D%22geometry%22%2F%3E%3C%2FmxCell%3E%3CmxCell%20id%3D%224%22%20value%3D%22%2B%20field%3A%20type%22%20style%3D%22text%3BstrokeColor%3Dnone%3BfillColor%3Dnone%3Balign%3Dleft%3BverticalAlign%3Dtop%3BspacingLeft%3D4%3BspacingRight%3D4%3Boverflow%3Dhidden%3Brotatable%3D0%3Bpoints%3D%5B%5B0%2C0.5%5D%2C%5B1%2C0.5%5D%5D%3BportConstraint%3Deastwest%3BwhiteSpace%3Dwrap%3Bhtml%3D1%3B%22%20vertex%3D%221%22%20parent%3D%222%22%3E%3CmxGeometry%20y%3D%22138%22%20width%3D%22140%22%20height%3D%222%22%20as%3D%22geometry%22%2F%3E%3C%2FmxCell%3E%3C%2Froot%3E%3C%2FmxGraphModel%3E&lt;/span&gt;&lt;/div&gt;" style="text;strokeColor=none;fillColor=none;align=left;verticalAlign=top;spacingLeft=4;spacingRight=4;overflow=hidden;rotatable=0;points=[[0,0.5],[1,0.5]];portConstraint=eastwest;whiteSpace=wrap;html=1;" vertex="1" parent="_PxVnZW1iezcTUb5o3Xm-36">
          <mxGeometry y="26" width="140" height="112" as="geometry" />
        </mxCell>
        <mxCell id="_PxVnZW1iezcTUb5o3Xm-38" value="+ field: type" style="text;strokeColor=none;fillColor=none;align=left;verticalAlign=top;spacingLeft=4;spacingRight=4;overflow=hidden;rotatable=0;points=[[0,0.5],[1,0.5]];portConstraint=eastwest;whiteSpace=wrap;html=1;" vertex="1" parent="_PxVnZW1iezcTUb5o3Xm-36">
          <mxGeometry y="138" width="140" height="2" as="geometry" />
        </mxCell>
        <mxCell id="_PxVnZW1iezcTUb5o3Xm-39" value="Offering" style="swimlane;fontStyle=0;childLayout=stackLayout;horizontal=1;startSize=26;fillColor=none;horizontalStack=0;resizeParent=1;resizeParentMax=0;resizeLast=0;collapsible=1;marginBottom=0;whiteSpace=wrap;html=1;" vertex="1" parent="1">
          <mxGeometry x="691" y="535" width="140" height="140" as="geometry" />
        </mxCell>
        <mxCell id="_PxVnZW1iezcTUb5o3Xm-40" value="OfferingID &amp;lt;&amp;lt;PK&amp;gt;&amp;gt;&lt;div&gt;LessonID &amp;lt;&amp;lt;FK&amp;gt;&amp;gt;&lt;/div&gt;&lt;div&gt;InstructorId&amp;lt;&amp;lt;FK&amp;gt;&amp;gt;&lt;/div&gt;&lt;div&gt;TimeslotID &amp;lt;&amp;lt;FK&amp;gt;&amp;gt;&lt;/div&gt;&lt;div&gt;LocationID &amp;lt;&amp;lt;FK&amp;gt;&amp;gt;&lt;/div&gt;&lt;div&gt;is_available&lt;/div&gt;" style="text;strokeColor=none;fillColor=none;align=left;verticalAlign=top;spacingLeft=4;spacingRight=4;overflow=hidden;rotatable=0;points=[[0,0.5],[1,0.5]];portConstraint=eastwest;whiteSpace=wrap;html=1;" vertex="1" parent="_PxVnZW1iezcTUb5o3Xm-39">
          <mxGeometry y="26" width="140" height="112" as="geometry" />
        </mxCell>
        <mxCell id="_PxVnZW1iezcTUb5o3Xm-41" value="+ field: type" style="text;strokeColor=none;fillColor=none;align=left;verticalAlign=top;spacingLeft=4;spacingRight=4;overflow=hidden;rotatable=0;points=[[0,0.5],[1,0.5]];portConstraint=eastwest;whiteSpace=wrap;html=1;" vertex="1" parent="_PxVnZW1iezcTUb5o3Xm-39">
          <mxGeometry y="138" width="140" height="2" as="geometry" />
        </mxCell>
        <mxCell id="_PxVnZW1iezcTUb5o3Xm-42" value="Booking" style="swimlane;fontStyle=0;childLayout=stackLayout;horizontal=1;startSize=26;fillColor=none;horizontalStack=0;resizeParent=1;resizeParentMax=0;resizeLast=0;collapsible=1;marginBottom=0;whiteSpace=wrap;html=1;" vertex="1" parent="1">
          <mxGeometry x="363" y="708" width="140" height="140" as="geometry" />
        </mxCell>
        <mxCell id="_PxVnZW1iezcTUb5o3Xm-43" value="BookingId&amp;lt;&amp;lt;PK&amp;gt;&amp;gt;&lt;div&gt;ClientID &amp;lt;&amp;lt;FK&amp;gt;&amp;gt;&lt;/div&gt;&lt;div&gt;OfferingID &amp;lt;&amp;lt;FK&amp;gt;&amp;gt;&lt;/div&gt;" style="text;strokeColor=none;fillColor=none;align=left;verticalAlign=top;spacingLeft=4;spacingRight=4;overflow=hidden;rotatable=0;points=[[0,0.5],[1,0.5]];portConstraint=eastwest;whiteSpace=wrap;html=1;" vertex="1" parent="_PxVnZW1iezcTUb5o3Xm-42">
          <mxGeometry y="26" width="140" height="112" as="geometry" />
        </mxCell>
        <mxCell id="_PxVnZW1iezcTUb5o3Xm-44" value="+ field: type" style="text;strokeColor=none;fillColor=none;align=left;verticalAlign=top;spacingLeft=4;spacingRight=4;overflow=hidden;rotatable=0;points=[[0,0.5],[1,0.5]];portConstraint=eastwest;whiteSpace=wrap;html=1;" vertex="1" parent="_PxVnZW1iezcTUb5o3Xm-42">
          <mxGeometry y="138" width="140" height="2" as="geometry" />
        </mxCell>
      </root>
    </mxGraphModel>
  </diagram>
</mxfile>
